<svg width="421" height="56" viewBox="0 0 421 56" fill="none" xmlns="http://www.w3.org/2000/svg">
<path d="M37.0881 0.499978H40.5381C41.8381 0.499978 42.7881 0.809978 43.3881 1.42998C43.9881 2.04998 44.2881 3.03998 44.2881 4.39998V7.09998C44.2881 8.45998 43.9881 9.44998 43.3881 10.07C42.7881 10.69 41.8381 11 40.5381 11H37.0881V9.81498H37.9881V1.66998H37.0881V0.499978ZM40.3581 9.82998C40.8181 9.82998 41.2131 9.78498 41.5431 9.69498C41.8831 9.60498 42.1631 9.45498 42.3831 9.24498C42.6031 9.02498 42.7631 8.73498 42.8631 8.37498C42.9731 8.01498 43.0281 7.55998 43.0281 7.00998V4.48998C43.0281 3.93998 42.9731 3.48498 42.8631 3.12498C42.7631 2.76498 42.6031 2.47998 42.3831 2.26998C42.1631 2.04998 41.8831 1.89498 41.5431 1.80498C41.2131 1.71498 40.8181 1.66998 40.3581 1.66998H39.2481V9.82998H40.3581Z" fill="black"/>
<path d="M46.0777 4.57998C46.0777 3.21998 46.4027 2.16498 47.0527 1.41498C47.7027 0.664978 48.6077 0.289978 49.7677 0.289978C50.9277 0.289978 51.8327 0.664978 52.4827 1.41498C53.1327 2.16498 53.4577 3.21998 53.4577 4.57998V6.91998C53.4577 8.31998 53.1327 9.38498 52.4827 10.115C51.8327 10.845 50.9277 11.21 49.7677 11.21C48.6077 11.21 47.7027 10.845 47.0527 10.115C46.4027 9.38498 46.0777 8.31998 46.0777 6.91998V4.57998ZM49.7677 10.04C50.5777 10.04 51.1827 9.76498 51.5827 9.21498C51.9927 8.65498 52.1977 7.85998 52.1977 6.82998V4.66998C52.1977 3.70998 51.9927 2.93498 51.5827 2.34498C51.1827 1.75498 50.5777 1.45998 49.7677 1.45998C48.9577 1.45998 48.3477 1.75498 47.9377 2.34498C47.5377 2.93498 47.3377 3.70998 47.3377 4.66998V6.82998C47.3377 7.85998 47.5377 8.65498 47.9377 9.21498C48.3477 9.76498 48.9577 10.04 49.7677 10.04Z" fill="black"/>
<path d="M67.5068 7.30998H67.2368L63.9518 0.499978H65.3618L68.0468 6.22998H68.2268L70.9118 0.499978H72.3218L69.0368 7.30998H68.7668V11H67.5068V7.30998Z" fill="black"/>
<path d="M73.6314 4.57998C73.6314 3.21998 73.9564 2.16498 74.6064 1.41498C75.2564 0.664978 76.1614 0.289978 77.3214 0.289978C78.4814 0.289978 79.3864 0.664978 80.0364 1.41498C80.6864 2.16498 81.0114 3.21998 81.0114 4.57998V6.91998C81.0114 8.31998 80.6864 9.38498 80.0364 10.115C79.3864 10.845 78.4814 11.21 77.3214 11.21C76.1614 11.21 75.2564 10.845 74.6064 10.115C73.9564 9.38498 73.6314 8.31998 73.6314 6.91998V4.57998ZM77.3214 10.04C78.1314 10.04 78.7364 9.76498 79.1364 9.21498C79.5464 8.65498 79.7514 7.85998 79.7514 6.82998V4.66998C79.7514 3.70998 79.5464 2.93498 79.1364 2.34498C78.7364 1.75498 78.1314 1.45998 77.3214 1.45998C76.5114 1.45998 75.9014 1.75498 75.4914 2.34498C75.0914 2.93498 74.8914 3.70998 74.8914 4.66998V6.82998C74.8914 7.85998 75.0914 8.65498 75.4914 9.21498C75.9014 9.76498 76.5114 10.04 77.3214 10.04Z" fill="black"/>
<path d="M84.166 0.499978V7.45998C84.166 8.30998 84.361 8.95498 84.751 9.39498C85.151 9.82498 85.736 10.04 86.506 10.04C87.276 10.04 87.856 9.82498 88.246 9.39498C88.646 8.95498 88.846 8.30998 88.846 7.45998V0.499978H90.106V7.45998C90.106 8.67998 89.786 9.60998 89.146 10.25C88.506 10.89 87.626 11.21 86.506 11.21C85.386 11.21 84.506 10.89 83.866 10.25C83.226 9.60998 82.906 8.67998 82.906 7.45998V0.499978H84.166Z" fill="black"/>
<path d="M101.38 0.499978H102.64V5.14998H107.11V0.499978H108.37V11H107.11V6.31998H102.64V11H101.38V0.499978Z" fill="black"/>
<path d="M116.31 8.38998H111.81L111.045 11H109.695L112.875 0.499978H115.245L118.425 11H117.075L116.31 8.38998ZM113.97 1.03998L112.155 7.21998H115.965L114.15 1.03998H113.97Z" fill="black"/>
<path d="M119.059 0.499978H120.409L123.154 10.46H123.334L126.079 0.499978H127.429L124.459 11H122.029L119.059 0.499978Z" fill="black"/>
<path d="M129.249 0.499978H135.609V1.66998H130.509V5.14998H135.519V6.31998H130.509V9.82998H135.699V11H129.249V0.499978Z" fill="black"/>
<path d="M153.048 8.38998H148.548L147.783 11H146.433L149.613 0.499978H151.983L155.163 11H153.813L153.048 8.38998ZM150.708 1.03998L148.893 7.21998H152.703L150.888 1.03998H150.708Z" fill="black"/>
<path d="M172.152 7.84998C172.152 8.93998 171.882 9.77498 171.342 10.355C170.812 10.925 170.032 11.21 169.002 11.21C167.972 11.21 167.157 10.925 166.557 10.355C165.967 9.77498 165.672 8.93998 165.672 7.84998V7.03998H166.932V7.84998C166.932 8.50998 167.102 9.03998 167.442 9.43998C167.782 9.83998 168.302 10.04 169.002 10.04C169.702 10.04 170.192 9.83998 170.472 9.43998C170.752 9.03998 170.892 8.50998 170.892 7.84998V1.66998H169.812V0.499978H173.052V1.66998H172.152V7.84998Z" fill="black"/>
<path d="M178.172 0.499978H180.617V7.84998H182.237V9.01998H180.617V11H179.357V9.01998H174.497V7.27998L178.172 0.499978ZM175.577 7.66998V7.84998H179.357V1.03998H179.177L175.577 7.66998Z" fill="black"/>
<path d="M187.401 11.21C186.871 11.21 186.391 11.14 185.961 11C185.531 10.85 185.161 10.65 184.851 10.4C184.541 10.14 184.301 9.83998 184.131 9.49998C183.971 9.14998 183.891 8.76998 183.891 8.35998V8.17998C183.891 7.81998 183.946 7.49998 184.056 7.21998C184.166 6.93998 184.311 6.69498 184.491 6.48498C184.671 6.27498 184.876 6.09998 185.106 5.95998C185.346 5.81998 185.591 5.71498 185.841 5.64498V5.46498C185.611 5.39498 185.396 5.28998 185.196 5.14998C184.996 5.00998 184.816 4.84498 184.656 4.65498C184.506 4.46498 184.386 4.24998 184.296 4.00998C184.206 3.75998 184.161 3.48998 184.161 3.19998V3.01998C184.161 2.61998 184.241 2.25498 184.401 1.92498C184.561 1.58498 184.786 1.29498 185.076 1.05498C185.376 0.814978 185.726 0.629978 186.126 0.499978C186.536 0.359978 186.991 0.289978 187.491 0.289978H187.581C188.071 0.289978 188.521 0.359978 188.931 0.499978C189.341 0.629978 189.691 0.814978 189.981 1.05498C190.281 1.29498 190.511 1.58498 190.671 1.92498C190.831 2.25498 190.911 2.61998 190.911 3.01998V3.19998C190.911 3.48998 190.866 3.75998 190.776 4.00998C190.686 4.24998 190.561 4.46498 190.401 4.65498C190.251 4.84498 190.071 5.00998 189.861 5.14998C189.661 5.28998 189.451 5.39498 189.231 5.46498V5.64498C189.481 5.71498 189.721 5.81998 189.951 5.95998C190.191 6.09998 190.401 6.27498 190.581 6.48498C190.761 6.69498 190.906 6.93998 191.016 7.21998C191.126 7.49998 191.181 7.81998 191.181 8.17998V8.35998C191.181 8.76998 191.096 9.14998 190.926 9.49998C190.766 9.83998 190.531 10.14 190.221 10.4C189.911 10.65 189.541 10.85 189.111 11C188.681 11.14 188.201 11.21 187.671 11.21H187.401ZM187.626 10.07C188.306 10.07 188.856 9.89498 189.276 9.54498C189.706 9.19498 189.921 8.73998 189.921 8.17998V8.08998C189.921 7.46998 189.701 6.98998 189.261 6.64998C188.831 6.30998 188.271 6.13998 187.581 6.13998H187.491C186.801 6.13998 186.236 6.30998 185.796 6.64998C185.366 6.98998 185.151 7.46998 185.151 8.08998V8.17998C185.151 8.73998 185.361 9.19498 185.781 9.54498C186.211 9.89498 186.766 10.07 187.446 10.07H187.626ZM187.536 4.96998C188.166 4.96998 188.676 4.80498 189.066 4.47498C189.456 4.14498 189.651 3.72998 189.651 3.22998V3.13998C189.651 2.62998 189.456 2.21998 189.066 1.90998C188.686 1.58998 188.176 1.42998 187.536 1.42998C186.896 1.42998 186.381 1.58998 185.991 1.90998C185.611 2.21998 185.421 2.62998 185.421 3.13998V3.22998C185.421 3.72998 185.616 4.14498 186.006 4.47498C186.396 4.80498 186.906 4.96998 187.536 4.96998Z" fill="black"/>
<path d="M192.986 9.82998H193.886V1.66998H192.986V0.499978H197.231C197.731 0.499978 198.171 0.569978 198.551 0.709978C198.941 0.849978 199.266 1.03998 199.526 1.27998C199.796 1.51998 199.996 1.80998 200.126 2.14998C200.266 2.47998 200.336 2.83998 200.336 3.22998V3.40998C200.336 3.69998 200.291 3.96498 200.201 4.20498C200.111 4.44498 199.986 4.65998 199.826 4.84998C199.666 5.03998 199.476 5.20498 199.256 5.34498C199.046 5.47498 198.816 5.57498 198.566 5.64498V5.82498C199.066 5.96498 199.486 6.23498 199.826 6.63498C200.166 7.02498 200.336 7.50498 200.336 8.07498V8.25498C200.336 8.64498 200.266 9.00998 200.126 9.34998C199.996 9.67998 199.796 9.96998 199.526 10.22C199.266 10.46 198.941 10.65 198.551 10.79C198.171 10.93 197.731 11 197.231 11H192.986V9.82998ZM195.146 9.82998H197.141C197.731 9.82998 198.211 9.68498 198.581 9.39498C198.951 9.09498 199.136 8.68498 199.136 8.16498V8.07498C199.136 7.53498 198.961 7.10998 198.611 6.79998C198.261 6.47998 197.786 6.31998 197.186 6.31998H195.146V9.82998ZM195.146 5.14998H197.186C197.786 5.14998 198.261 4.99498 198.611 4.68498C198.961 4.37498 199.136 3.94998 199.136 3.40998V3.31998C199.136 2.80998 198.951 2.40998 198.581 2.11998C198.211 1.81998 197.731 1.66998 197.141 1.66998H195.146V5.14998Z" fill="black"/>
<path d="M208.155 8.38998H203.655L202.89 11H201.54L204.72 0.499978H207.09L210.27 11H208.92L208.155 8.38998ZM205.815 1.03998L204 7.21998H207.81L205.995 1.03998H205.815Z" fill="black"/>
<path d="M211.925 0.499978H218.375V1.66998H213.185V5.14998H218.285V6.31998H213.185V11H211.925V0.499978Z" fill="black"/>
<path d="M220.585 4.57998C220.585 3.21998 220.91 2.16498 221.56 1.41498C222.21 0.664978 223.115 0.289978 224.275 0.289978C225.435 0.289978 226.34 0.664978 226.99 1.41498C227.64 2.16498 227.965 3.21998 227.965 4.57998V6.91998C227.965 8.31998 227.64 9.38498 226.99 10.115C226.34 10.845 225.435 11.21 224.275 11.21C223.115 11.21 222.21 10.845 221.56 10.115C220.91 9.38498 220.585 8.31998 220.585 6.91998V4.57998ZM224.275 10.04C225.085 10.04 225.69 9.76498 226.09 9.21498C226.5 8.65498 226.705 7.85998 226.705 6.82998V4.66998C226.705 3.70998 226.5 2.93498 226.09 2.34498C225.69 1.75498 225.085 1.45998 224.275 1.45998C223.465 1.45998 222.855 1.75498 222.445 2.34498C222.045 2.93498 221.845 3.70998 221.845 4.66998V6.82998C221.845 7.85998 222.045 8.65498 222.445 9.21498C222.855 9.76498 223.465 10.04 224.275 10.04Z" fill="black"/>
<path d="M236.744 11H235.484V7.48998C235.484 7.22998 235.424 7.02998 235.304 6.88998C235.184 6.74998 234.974 6.67998 234.674 6.67998H231.404V11H230.144V0.499978H233.894C234.434 0.499978 234.904 0.579978 235.304 0.739978C235.704 0.889978 236.034 1.09498 236.294 1.35498C236.564 1.61498 236.764 1.91998 236.894 2.26998C237.034 2.60998 237.104 2.96998 237.104 3.34998V3.79998C237.104 4.18998 236.994 4.57998 236.774 4.96998C236.564 5.35998 236.234 5.65998 235.784 5.86998V6.04998C236.084 6.09998 236.319 6.21998 236.489 6.40998C236.659 6.59998 236.744 6.86998 236.744 7.21998V11ZM231.404 5.50998H233.744C234.454 5.50998 234.979 5.35998 235.319 5.05998C235.669 4.74998 235.844 4.29998 235.844 3.70998V3.43998C235.844 2.90998 235.669 2.48498 235.319 2.16498C234.979 1.83498 234.454 1.66998 233.744 1.66998H231.404V5.50998Z" fill="black"/>
<path d="M238.744 0.499978H241.144L242.554 10.46H242.734L244.144 0.499978H246.544V11H245.374V1.03998H245.194L243.784 11H241.504L240.094 1.03998H239.914V11H238.744V0.499978Z" fill="black"/>
<path d="M264.373 11H262.078L261.103 1.03998H260.923L259.948 11H257.653L256.588 0.499978H257.728L258.733 10.46H258.913L259.858 0.499978H262.168L263.113 10.46H263.293L264.298 0.499978H265.438L264.373 11Z" fill="black"/>
<path d="M266.867 0.499978H273.527V1.66998H270.827V9.82998H273.527V11H266.867V9.82998H269.567V1.66998H266.867V0.499978Z" fill="black"/>
<path d="M275.692 0.499978H283.072V1.66998H280.012V11H278.752V1.66998H275.692V0.499978Z" fill="black"/>
<path d="M285.072 0.499978H286.332V5.14998H290.802V0.499978H292.062V11H290.802V6.31998H286.332V11H285.072V0.499978Z" fill="black"/>
<path d="M309.186 8.38998H304.686L303.921 11H302.571L305.751 0.499978H308.121L311.301 11H309.951L309.186 8.38998ZM306.846 1.03998L305.031 7.21998H308.841L307.026 1.03998H306.846Z" fill="black"/>
<path d="M321.57 9.82998H322.47V1.66998H321.57V0.499978H325.815C326.315 0.499978 326.755 0.569978 327.135 0.709978C327.525 0.849978 327.85 1.03998 328.11 1.27998C328.38 1.51998 328.58 1.80998 328.71 2.14998C328.85 2.47998 328.92 2.83998 328.92 3.22998V3.40998C328.92 3.69998 328.875 3.96498 328.785 4.20498C328.695 4.44498 328.57 4.65998 328.41 4.84998C328.25 5.03998 328.06 5.20498 327.84 5.34498C327.63 5.47498 327.4 5.57498 327.15 5.64498V5.82498C327.65 5.96498 328.07 6.23498 328.41 6.63498C328.75 7.02498 328.92 7.50498 328.92 8.07498V8.25498C328.92 8.64498 328.85 9.00998 328.71 9.34998C328.58 9.67998 328.38 9.96998 328.11 10.22C327.85 10.46 327.525 10.65 327.135 10.79C326.755 10.93 326.315 11 325.815 11H321.57V9.82998ZM323.73 9.82998H325.725C326.315 9.82998 326.795 9.68498 327.165 9.39498C327.535 9.09498 327.72 8.68498 327.72 8.16498V8.07498C327.72 7.53498 327.545 7.10998 327.195 6.79998C326.845 6.47998 326.37 6.31998 325.77 6.31998H323.73V9.82998ZM323.73 5.14998H325.77C326.37 5.14998 326.845 4.99498 327.195 4.68498C327.545 4.37498 327.72 3.94998 327.72 3.40998V3.31998C327.72 2.80998 327.535 2.40998 327.165 2.11998C326.795 1.81998 326.315 1.66998 325.725 1.66998H323.73V5.14998Z" fill="black"/>
<path d="M330.799 4.57998C330.799 3.21998 331.124 2.16498 331.774 1.41498C332.424 0.664978 333.329 0.289978 334.489 0.289978C335.649 0.289978 336.554 0.664978 337.204 1.41498C337.854 2.16498 338.179 3.21998 338.179 4.57998V6.91998C338.179 8.31998 337.854 9.38498 337.204 10.115C336.554 10.845 335.649 11.21 334.489 11.21C333.329 11.21 332.424 10.845 331.774 10.115C331.124 9.38498 330.799 8.31998 330.799 6.91998V4.57998ZM334.489 10.04C335.299 10.04 335.904 9.76498 336.304 9.21498C336.714 8.65498 336.919 7.85998 336.919 6.82998V4.66998C336.919 3.70998 336.714 2.93498 336.304 2.34498C335.904 1.75498 335.299 1.45998 334.489 1.45998C333.679 1.45998 333.069 1.75498 332.659 2.34498C332.259 2.93498 332.059 3.70998 332.059 4.66998V6.82998C332.059 7.85998 332.259 8.65498 332.659 9.21498C333.069 9.76498 333.679 10.04 334.489 10.04Z" fill="black"/>
<path d="M341.334 0.499978V7.45998C341.334 8.30998 341.529 8.95498 341.919 9.39498C342.319 9.82498 342.904 10.04 343.674 10.04C344.444 10.04 345.024 9.82498 345.414 9.39498C345.814 8.95498 346.014 8.30998 346.014 7.45998V0.499978H347.274V7.45998C347.274 8.67998 346.954 9.60998 346.314 10.25C345.674 10.89 344.794 11.21 343.674 11.21C342.554 11.21 341.674 10.89 341.034 10.25C340.394 9.60998 340.074 8.67998 340.074 7.45998V0.499978H341.334Z" fill="black"/>
<path d="M354.914 10.46H355.094V0.499978H356.354V11H353.834L350.804 1.03998H350.624V11H349.364V0.499978H351.884L354.914 10.46Z" fill="black"/>
<path d="M358.353 0.499978H365.733V1.66998H362.673V11H361.413V1.66998H358.353V0.499978Z" fill="black"/>
<path d="M370.598 7.30998H370.328L367.043 0.499978H368.453L371.138 6.22998H371.318L374.003 0.499978H375.413L372.128 7.30998H371.858V11H370.598V7.30998Z" fill="black"/>
<path d="M381.102 5.50998C381.552 5.50998 381.922 5.34498 382.212 5.01498C382.512 4.68498 382.662 4.24998 382.662 3.70998V3.61998C382.662 3.31998 382.607 3.03998 382.497 2.77998C382.397 2.51998 382.252 2.29498 382.062 2.10498C381.872 1.90498 381.642 1.74998 381.372 1.63998C381.102 1.51998 380.802 1.45998 380.472 1.45998C379.752 1.45998 379.187 1.67998 378.777 2.11998C378.367 2.55998 378.162 3.13998 378.162 3.85998V4.48998H376.902V3.76998C376.902 3.30998 376.977 2.86998 377.127 2.44998C377.287 2.02998 377.517 1.65998 377.817 1.33998C378.117 1.01998 378.492 0.764978 378.942 0.574978C379.392 0.384978 379.912 0.289978 380.502 0.289978C381.002 0.289978 381.462 0.374978 381.882 0.544978C382.302 0.714979 382.662 0.949978 382.962 1.24998C383.262 1.53998 383.497 1.87998 383.667 2.26998C383.837 2.64998 383.922 3.05498 383.922 3.48498V3.75498C383.922 4.14498 383.852 4.51998 383.712 4.87998C383.582 5.22998 383.397 5.53498 383.157 5.79498C382.917 6.05498 382.632 6.26498 382.302 6.42498C381.982 6.57498 381.632 6.64998 381.252 6.64998H381.042C380.762 6.64998 380.622 6.79998 380.622 7.09998V8.20998H379.422V6.79998C379.422 6.41998 379.542 6.10998 379.782 5.86998C380.022 5.62998 380.332 5.50998 380.712 5.50998H381.102ZM378.987 10.16C378.987 9.86998 379.087 9.62498 379.287 9.42498C379.497 9.21498 379.747 9.10998 380.037 9.10998C380.327 9.10998 380.572 9.21498 380.772 9.42498C380.982 9.62498 381.087 9.86998 381.087 10.16C381.087 10.45 380.982 10.7 380.772 10.91C380.572 11.11 380.327 11.21 380.037 11.21C379.747 11.21 379.497 11.11 379.287 10.91C379.087 10.7 378.987 10.45 378.987 10.16Z" fill="black"/>
<path d="M3.90484 32.04C4.33484 32.04 4.69984 31.97 4.99984 31.83C5.30984 31.68 5.55984 31.485 5.74984 31.245C5.94984 30.995 6.09484 30.715 6.18484 30.405C6.28484 30.085 6.33484 29.75 6.33484 29.4V29.22H7.59484V29.4C7.59484 29.93 7.51484 30.43 7.35484 30.9C7.19484 31.36 6.95984 31.765 6.64984 32.115C6.33984 32.455 5.95484 32.725 5.49484 32.925C5.03484 33.115 4.50484 33.21 3.90484 33.21C2.74484 33.21 1.83984 32.845 1.18984 32.115C0.539844 31.385 0.214844 30.32 0.214844 28.92V26.58C0.214844 25.22 0.539844 24.165 1.18984 23.415C1.83984 22.665 2.74484 22.29 3.90484 22.29C4.50484 22.29 5.03484 22.39 5.49484 22.59C5.95484 22.78 6.33984 23.05 6.64984 23.4C6.95984 23.74 7.19484 24.145 7.35484 24.615C7.51484 25.075 7.59484 25.57 7.59484 26.1V26.28H6.33484V26.1C6.32484 25.76 6.26984 25.43 6.16984 25.11C6.07984 24.79 5.93484 24.51 5.73484 24.27C5.54484 24.02 5.29984 23.825 4.99984 23.685C4.69984 23.535 4.33484 23.46 3.90484 23.46C3.09484 23.46 2.48484 23.755 2.07484 24.345C1.67484 24.935 1.47484 25.71 1.47484 26.67V28.83C1.47484 29.86 1.67484 30.655 2.07484 31.215C2.48484 31.765 3.09484 32.04 3.90484 32.04Z" fill="black"/>
<path d="M9.33941 26.58C9.33941 25.22 9.66441 24.165 10.3144 23.415C10.9644 22.665 11.8694 22.29 13.0294 22.29C14.1894 22.29 15.0944 22.665 15.7444 23.415C16.3944 24.165 16.7194 25.22 16.7194 26.58V28.92C16.7194 30.32 16.3944 31.385 15.7444 32.115C15.0944 32.845 14.1894 33.21 13.0294 33.21C11.8694 33.21 10.9644 32.845 10.3144 32.115C9.66441 31.385 9.33941 30.32 9.33941 28.92V26.58ZM13.0294 32.04C13.8394 32.04 14.4444 31.765 14.8444 31.215C15.2544 30.655 15.4594 29.86 15.4594 28.83V26.67C15.4594 25.71 15.2544 24.935 14.8444 24.345C14.4444 23.755 13.8394 23.46 13.0294 23.46C12.2194 23.46 11.6094 23.755 11.1994 24.345C10.7994 24.935 10.5994 25.71 10.5994 26.67V28.83C10.5994 29.86 10.7994 30.655 11.1994 31.215C11.6094 31.765 12.2194 32.04 13.0294 32.04Z" fill="black"/>
<path d="M24.269 32.46H24.449V22.5H25.709V33H23.189L20.159 23.04H19.979V33H18.719V22.5H21.239L24.269 32.46Z" fill="black"/>
<path d="M33.4536 32.46H33.6336V22.5H34.8936V33H32.3736L29.3436 23.04H29.1636V33H27.9036V22.5H30.4236L33.4536 32.46Z" fill="black"/>
<path d="M37.4031 22.5H43.7631V23.67H38.6631V27.15H43.6731V28.32H38.6631V31.83H43.8531V33H37.4031V22.5Z" fill="black"/>
<path d="M49.8277 32.04C50.2577 32.04 50.6227 31.97 50.9227 31.83C51.2327 31.68 51.4827 31.485 51.6727 31.245C51.8727 30.995 52.0177 30.715 52.1077 30.405C52.2077 30.085 52.2577 29.75 52.2577 29.4V29.22H53.5177V29.4C53.5177 29.93 53.4377 30.43 53.2777 30.9C53.1177 31.36 52.8827 31.765 52.5727 32.115C52.2627 32.455 51.8777 32.725 51.4177 32.925C50.9577 33.115 50.4277 33.21 49.8277 33.21C48.6677 33.21 47.7627 32.845 47.1127 32.115C46.4627 31.385 46.1377 30.32 46.1377 28.92V26.58C46.1377 25.22 46.4627 24.165 47.1127 23.415C47.7627 22.665 48.6677 22.29 49.8277 22.29C50.4277 22.29 50.9577 22.39 51.4177 22.59C51.8777 22.78 52.2627 23.05 52.5727 23.4C52.8827 23.74 53.1177 24.145 53.2777 24.615C53.4377 25.075 53.5177 25.57 53.5177 26.1V26.28H52.2577V26.1C52.2477 25.76 52.1927 25.43 52.0927 25.11C52.0027 24.79 51.8577 24.51 51.6577 24.27C51.4677 24.02 51.2227 23.825 50.9227 23.685C50.6227 23.535 50.2577 23.46 49.8277 23.46C49.0177 23.46 48.4077 23.755 47.9977 24.345C47.5977 24.935 47.3977 25.71 47.3977 26.67V28.83C47.3977 29.86 47.5977 30.655 47.9977 31.215C48.4077 31.765 49.0177 32.04 49.8277 32.04Z" fill="black"/>
<path d="M55.2623 22.5H62.6423V23.67H59.5823V33H58.3223V23.67H55.2623V22.5Z" fill="black"/>
<path d="M76.6914 29.31H76.4214L73.1364 22.5H74.5464L77.2314 28.23H77.4114L80.0964 22.5H81.5064L78.2214 29.31H77.9514V33H76.6914V29.31Z" fill="black"/>
<path d="M82.816 26.58C82.816 25.22 83.141 24.165 83.791 23.415C84.441 22.665 85.346 22.29 86.506 22.29C87.666 22.29 88.571 22.665 89.221 23.415C89.871 24.165 90.196 25.22 90.196 26.58V28.92C90.196 30.32 89.871 31.385 89.221 32.115C88.571 32.845 87.666 33.21 86.506 33.21C85.346 33.21 84.441 32.845 83.791 32.115C83.141 31.385 82.816 30.32 82.816 28.92V26.58ZM86.506 32.04C87.316 32.04 87.921 31.765 88.321 31.215C88.731 30.655 88.936 29.86 88.936 28.83V26.67C88.936 25.71 88.731 24.935 88.321 24.345C87.921 23.755 87.316 23.46 86.506 23.46C85.696 23.46 85.086 23.755 84.676 24.345C84.276 24.935 84.076 25.71 84.076 26.67V28.83C84.076 29.86 84.276 30.655 84.676 31.215C85.086 31.765 85.696 32.04 86.506 32.04Z" fill="black"/>
<path d="M93.3505 22.5V29.46C93.3505 30.31 93.5455 30.955 93.9355 31.395C94.3355 31.825 94.9205 32.04 95.6905 32.04C96.4605 32.04 97.0406 31.825 97.4305 31.395C97.8306 30.955 98.0305 30.31 98.0305 29.46V22.5H99.2906V29.46C99.2906 30.68 98.9705 31.61 98.3305 32.25C97.6905 32.89 96.8105 33.21 95.6905 33.21C94.5705 33.21 93.6905 32.89 93.0505 32.25C92.4105 31.61 92.0905 30.68 92.0905 29.46V22.5H93.3505Z" fill="black"/>
<path d="M108.16 33H106.9V29.49C106.9 29.23 106.84 29.03 106.72 28.89C106.6 28.75 106.39 28.68 106.09 28.68H102.82V33H101.56V22.5H105.31C105.85 22.5 106.32 22.58 106.72 22.74C107.12 22.89 107.45 23.095 107.71 23.355C107.98 23.615 108.18 23.92 108.31 24.27C108.45 24.61 108.52 24.97 108.52 25.35V25.8C108.52 26.19 108.41 26.58 108.19 26.97C107.98 27.36 107.65 27.66 107.2 27.87V28.05C107.5 28.1 107.735 28.22 107.905 28.41C108.075 28.6 108.16 28.87 108.16 29.22V33ZM102.82 27.51H105.16C105.87 27.51 106.395 27.36 106.735 27.06C107.085 26.75 107.26 26.3 107.26 25.71V25.44C107.26 24.91 107.085 24.485 106.735 24.165C106.395 23.835 105.87 23.67 105.16 23.67H102.82V27.51Z" fill="black"/>
<path d="M126.604 33H124.309L123.334 23.04H123.154L122.179 33H119.884L118.819 22.5H119.959L120.964 32.46H121.144L122.089 22.5H124.399L125.344 32.46H125.524L126.529 22.5H127.669L126.604 33Z" fill="black"/>
<path d="M134.679 30.39H130.179L129.414 33H128.064L131.244 22.5H133.614L136.794 33H135.444L134.679 30.39ZM132.339 23.04L130.524 29.22H134.334L132.519 23.04H132.339Z" fill="black"/>
<path d="M138.328 22.5H139.588V31.83H145.078V33H138.328V22.5Z" fill="black"/>
<path d="M147.513 22.5H148.773V31.83H154.263V33H147.513V22.5Z" fill="black"/>
<path d="M156.803 22.5H163.163V23.67H158.063V27.15H163.073V28.32H158.063V31.83H163.253V33H156.803V22.5Z" fill="black"/>
<path d="M165.477 22.5H172.857V23.67H169.797V33H168.537V23.67H165.477V22.5Z" fill="black"/>
<path d="M183.846 22.5H191.226V23.67H188.166V33H186.906V23.67H183.846V22.5Z" fill="black"/>
<path d="M193.031 26.58C193.031 25.22 193.356 24.165 194.006 23.415C194.656 22.665 195.561 22.29 196.721 22.29C197.881 22.29 198.786 22.665 199.436 23.415C200.086 24.165 200.411 25.22 200.411 26.58V28.92C200.411 30.32 200.086 31.385 199.436 32.115C198.786 32.845 197.881 33.21 196.721 33.21C195.561 33.21 194.656 32.845 194.006 32.115C193.356 31.385 193.031 30.32 193.031 28.92V26.58ZM196.721 32.04C197.531 32.04 198.136 31.765 198.536 31.215C198.946 30.655 199.151 29.86 199.151 28.83V26.67C199.151 25.71 198.946 24.935 198.536 24.345C198.136 23.755 197.531 23.46 196.721 23.46C195.911 23.46 195.301 23.755 194.891 24.345C194.491 24.935 194.291 25.71 194.291 26.67V28.83C194.291 29.86 194.491 30.655 194.891 31.215C195.301 31.765 195.911 32.04 196.721 32.04Z" fill="black"/>
<path d="M211.925 22.5H218.375V23.67H213.185V27.15H218.285V28.32H213.185V33H211.925V22.5Z" fill="black"/>
<path d="M220.945 22.5H227.605V23.67H224.905V31.83H227.605V33H220.945V31.83H223.645V23.67H220.945V22.5Z" fill="black"/>
<path d="M235.514 32.46H235.694V22.5H236.954V33H234.434L231.404 23.04H231.224V33H229.964V22.5H232.484L235.514 32.46Z" fill="black"/>
<path d="M239.149 22.5H242.599C243.899 22.5 244.849 22.81 245.449 23.43C246.049 24.05 246.349 25.04 246.349 26.4V29.1C246.349 30.46 246.049 31.45 245.449 32.07C244.849 32.69 243.899 33 242.599 33H239.149V31.815H240.049V23.67H239.149V22.5ZM242.419 31.83C242.879 31.83 243.274 31.785 243.604 31.695C243.944 31.605 244.224 31.455 244.444 31.245C244.664 31.025 244.824 30.735 244.924 30.375C245.034 30.015 245.089 29.56 245.089 29.01V26.49C245.089 25.94 245.034 25.485 244.924 25.125C244.824 24.765 244.664 24.48 244.444 24.27C244.224 24.05 243.944 23.895 243.604 23.805C243.274 23.715 242.879 23.67 242.419 23.67H241.309V31.83H242.419Z" fill="black"/>
<path d="M257.323 26.58C257.323 25.22 257.648 24.165 258.298 23.415C258.948 22.665 259.853 22.29 261.013 22.29C262.173 22.29 263.078 22.665 263.728 23.415C264.378 24.165 264.703 25.22 264.703 26.58V28.92C264.703 30.32 264.378 31.385 263.728 32.115C263.078 32.845 262.173 33.21 261.013 33.21C259.853 33.21 258.948 32.845 258.298 32.115C257.648 31.385 257.323 30.32 257.323 28.92V26.58ZM261.013 32.04C261.823 32.04 262.428 31.765 262.828 31.215C263.238 30.655 263.443 29.86 263.443 28.83V26.67C263.443 25.71 263.238 24.935 262.828 24.345C262.428 23.755 261.823 23.46 261.013 23.46C260.203 23.46 259.593 23.755 259.183 24.345C258.783 24.935 258.583 25.71 258.583 26.67V28.83C258.583 29.86 258.783 30.655 259.183 31.215C259.593 31.765 260.203 32.04 261.013 32.04Z" fill="black"/>
<path d="M267.857 22.5V29.46C267.857 30.31 268.052 30.955 268.442 31.395C268.842 31.825 269.427 32.04 270.197 32.04C270.967 32.04 271.547 31.825 271.937 31.395C272.337 30.955 272.537 30.31 272.537 29.46V22.5H273.797V29.46C273.797 30.68 273.477 31.61 272.837 32.25C272.197 32.89 271.317 33.21 270.197 33.21C269.077 33.21 268.197 32.89 267.557 32.25C266.917 31.61 266.597 30.68 266.597 29.46V22.5H267.857Z" fill="black"/>
<path d="M275.692 22.5H283.072V23.67H280.012V33H278.752V23.67H275.692V22.5Z" fill="black"/>
<path d="M300.001 30.39H295.501L294.736 33H293.386L296.566 22.5H298.936L302.116 33H300.766L300.001 30.39ZM297.661 23.04L295.846 29.22H299.656L297.841 23.04H297.661Z" fill="black"/>
<path d="M308.991 32.46H309.171V22.5H310.431V33H307.911L304.881 23.04H304.701V33H303.441V22.5H305.961L308.991 32.46Z" fill="black"/>
<path d="M312.625 22.5H316.075C317.375 22.5 318.325 22.81 318.925 23.43C319.525 24.05 319.825 25.04 319.825 26.4V29.1C319.825 30.46 319.525 31.45 318.925 32.07C318.325 32.69 317.375 33 316.075 33H312.625V31.815H313.525V23.67H312.625V22.5ZM315.895 31.83C316.355 31.83 316.75 31.785 317.08 31.695C317.42 31.605 317.7 31.455 317.92 31.245C318.14 31.025 318.3 30.735 318.4 30.375C318.51 30.015 318.565 29.56 318.565 29.01V26.49C318.565 25.94 318.51 25.485 318.4 25.125C318.3 24.765 318.14 24.48 317.92 24.27C317.7 24.05 317.42 23.895 317.08 23.805C316.75 23.715 316.355 23.67 315.895 23.67H314.785V31.83H315.895Z" fill="black"/>
<path d="M334.549 32.04C334.979 32.04 335.344 31.97 335.644 31.83C335.954 31.68 336.204 31.485 336.394 31.245C336.594 30.995 336.739 30.715 336.829 30.405C336.929 30.085 336.979 29.75 336.979 29.4V29.22H338.239V29.4C338.239 29.93 338.159 30.43 337.999 30.9C337.839 31.36 337.604 31.765 337.294 32.115C336.984 32.455 336.599 32.725 336.139 32.925C335.679 33.115 335.149 33.21 334.549 33.21C333.389 33.21 332.484 32.845 331.834 32.115C331.184 31.385 330.859 30.32 330.859 28.92V26.58C330.859 25.22 331.184 24.165 331.834 23.415C332.484 22.665 333.389 22.29 334.549 22.29C335.149 22.29 335.679 22.39 336.139 22.59C336.599 22.78 336.984 23.05 337.294 23.4C337.604 23.74 337.839 24.145 337.999 24.615C338.159 25.075 338.239 25.57 338.239 26.1V26.28H336.979V26.1C336.969 25.76 336.914 25.43 336.814 25.11C336.724 24.79 336.579 24.51 336.379 24.27C336.189 24.02 335.944 23.825 335.644 23.685C335.344 23.535 334.979 23.46 334.549 23.46C333.739 23.46 333.129 23.755 332.719 24.345C332.319 24.935 332.119 25.71 332.119 26.67V28.83C332.119 29.86 332.319 30.655 332.719 31.215C333.129 31.765 333.739 32.04 334.549 32.04Z" fill="black"/>
<path d="M340.389 22.5H341.649V31.83H347.139V33H340.389V22.5Z" fill="black"/>
<path d="M355.109 30.39H350.609L349.844 33H348.494L351.674 22.5H354.044L357.224 33H355.874L355.109 30.39ZM352.769 23.04L350.954 29.22H354.764L352.949 23.04H352.769Z" fill="black"/>
<path d="M358.713 22.5H365.373V23.67H362.673V31.83H365.373V33H358.713V31.83H361.413V23.67H358.713V22.5Z" fill="black"/>
<path d="M367.328 22.5H369.728L371.138 32.46H371.318L372.728 22.5H375.128V33H373.958V23.04H373.778L372.368 33H370.088L368.678 23.04H368.498V33H367.328V22.5Z" fill="black"/>
<path d="M388.967 29.31H388.697L385.412 22.5H386.822L389.507 28.23H389.687L392.372 22.5H393.782L390.497 29.31H390.227V33H388.967V29.31Z" fill="black"/>
<path d="M395.091 26.58C395.091 25.22 395.416 24.165 396.066 23.415C396.716 22.665 397.621 22.29 398.781 22.29C399.941 22.29 400.846 22.665 401.496 23.415C402.146 24.165 402.471 25.22 402.471 26.58V28.92C402.471 30.32 402.146 31.385 401.496 32.115C400.846 32.845 399.941 33.21 398.781 33.21C397.621 33.21 396.716 32.845 396.066 32.115C395.416 31.385 395.091 30.32 395.091 28.92V26.58ZM398.781 32.04C399.591 32.04 400.196 31.765 400.596 31.215C401.006 30.655 401.211 29.86 401.211 28.83V26.67C401.211 25.71 401.006 24.935 400.596 24.345C400.196 23.755 399.591 23.46 398.781 23.46C397.971 23.46 397.361 23.755 396.951 24.345C396.551 24.935 396.351 25.71 396.351 26.67V28.83C396.351 29.86 396.551 30.655 396.951 31.215C397.361 31.765 397.971 32.04 398.781 32.04Z" fill="black"/>
<path d="M405.626 22.5V29.46C405.626 30.31 405.821 30.955 406.211 31.395C406.611 31.825 407.196 32.04 407.966 32.04C408.736 32.04 409.316 31.825 409.706 31.395C410.106 30.955 410.306 30.31 410.306 29.46V22.5H411.566V29.46C411.566 30.68 411.246 31.61 410.606 32.25C409.966 32.89 409.086 33.21 407.966 33.21C406.846 33.21 405.966 32.89 405.326 32.25C404.686 31.61 404.366 30.68 404.366 29.46V22.5H405.626Z" fill="black"/>
<path d="M420.436 33H419.176V29.49C419.176 29.23 419.116 29.03 418.996 28.89C418.876 28.75 418.665 28.68 418.366 28.68H415.096V33H413.836V22.5H417.586C418.126 22.5 418.596 22.58 418.996 22.74C419.396 22.89 419.725 23.095 419.986 23.355C420.255 23.615 420.456 23.92 420.586 24.27C420.726 24.61 420.796 24.97 420.796 25.35V25.8C420.796 26.19 420.686 26.58 420.466 26.97C420.256 27.36 419.926 27.66 419.475 27.87V28.05C419.775 28.1 420.01 28.22 420.181 28.41C420.351 28.6 420.436 28.87 420.436 29.22V33ZM415.096 27.51H417.436C418.146 27.51 418.671 27.36 419.01 27.06C419.361 26.75 419.536 26.3 419.536 25.71V25.44C419.536 24.91 419.361 24.485 419.01 24.165C418.671 23.835 418.146 23.67 417.436 23.67H415.096V27.51Z" fill="black"/>
<path d="M119.554 48.58C119.554 47.22 119.879 46.165 120.529 45.415C121.179 44.665 122.084 44.29 123.244 44.29C124.404 44.29 125.309 44.665 125.959 45.415C126.609 46.165 126.934 47.22 126.934 48.58V50.92C126.934 52.32 126.609 53.385 125.959 54.115C125.309 54.845 124.404 55.21 123.244 55.21C122.084 55.21 121.179 54.845 120.529 54.115C119.879 53.385 119.554 52.32 119.554 50.92V48.58ZM123.244 54.04C124.054 54.04 124.659 53.765 125.059 53.215C125.469 52.655 125.674 51.86 125.674 50.83V48.67C125.674 47.71 125.469 46.935 125.059 46.345C124.659 45.755 124.054 45.46 123.244 45.46C122.434 45.46 121.824 45.755 121.414 46.345C121.014 46.935 120.814 47.71 120.814 48.67V50.83C120.814 51.86 121.014 52.655 121.414 53.215C121.824 53.765 122.434 54.04 123.244 54.04Z" fill="black"/>
<path d="M134.484 54.46H134.664V44.5H135.924V55H133.404L130.374 45.04H130.194V55H128.934V44.5H131.454L134.484 54.46Z" fill="black"/>
<path d="M138.433 44.5H144.793V45.67H139.693V49.15H144.703V50.32H139.693V53.83H144.883V55H138.433V44.5Z" fill="black"/>
<path d="M156.293 48.58C156.293 47.22 156.618 46.165 157.268 45.415C157.918 44.665 158.823 44.29 159.983 44.29C161.143 44.29 162.048 44.665 162.698 45.415C163.348 46.165 163.673 47.22 163.673 48.58V50.92C163.673 52.32 163.348 53.385 162.698 54.115C162.048 54.845 161.143 55.21 159.983 55.21C158.823 55.21 157.918 54.845 157.268 54.115C156.618 53.385 156.293 52.32 156.293 50.92V48.58ZM159.983 54.04C160.793 54.04 161.398 53.765 161.798 53.215C162.208 52.655 162.413 51.86 162.413 50.83V48.67C162.413 47.71 162.208 46.935 161.798 46.345C161.398 45.755 160.793 45.46 159.983 45.46C159.173 45.46 158.563 45.755 158.153 46.345C157.753 46.935 157.553 47.71 157.553 48.67V50.83C157.553 51.86 157.753 52.655 158.153 53.215C158.563 53.765 159.173 54.04 159.983 54.04Z" fill="black"/>
<path d="M166.002 44.5H172.452V45.67H167.262V49.15H172.362V50.32H167.262V55H166.002V44.5Z" fill="black"/>
<path d="M189.786 52.39H185.286L184.521 55H183.171L186.351 44.5H188.721L191.901 55H190.551L189.786 52.39ZM187.446 45.04L185.631 51.22H189.441L187.626 45.04H187.446Z" fill="black"/>
<path d="M203.91 55H202.65V44.5H203.91V49.15H204.255L208.29 44.5H209.85V44.59L205.5 49.66V49.84L210.03 54.91V55H208.44L204.255 50.32H203.91V55Z" fill="black"/>
<path d="M211.76 44.5H218.42V45.67H215.72V53.83H218.42V55H211.76V53.83H214.46V45.67H211.76V44.5Z" fill="black"/>
<path d="M226.33 54.46H226.51V44.5H227.77V55H225.25L222.22 45.04H222.04V55H220.78V44.5H223.3L226.33 54.46Z" fill="black"/>
<path d="M229.964 44.5H233.414C234.714 44.5 235.664 44.81 236.264 45.43C236.864 46.05 237.164 47.04 237.164 48.4V51.1C237.164 52.46 236.864 53.45 236.264 54.07C235.664 54.69 234.714 55 233.414 55H229.964V53.815H230.864V45.67H229.964V44.5ZM233.234 53.83C233.694 53.83 234.089 53.785 234.419 53.695C234.759 53.605 235.039 53.455 235.259 53.245C235.479 53.025 235.639 52.735 235.739 52.375C235.849 52.015 235.904 51.56 235.904 51.01V48.49C235.904 47.94 235.849 47.485 235.739 47.125C235.639 46.765 235.479 46.48 235.259 46.27C235.039 46.05 234.759 45.895 234.419 45.805C234.089 45.715 233.694 45.67 233.234 45.67H232.124V53.83H233.234Z" fill="black"/>
<path d="M249.773 50.68V55H248.513V44.5H252.263C252.803 44.5 253.273 44.58 253.673 44.74C254.073 44.89 254.403 45.095 254.663 45.355C254.933 45.615 255.133 45.92 255.263 46.27C255.403 46.61 255.473 46.97 255.473 47.35V47.8C255.473 48.18 255.403 48.545 255.263 48.895C255.133 49.245 254.933 49.555 254.663 49.825C254.393 50.085 254.058 50.295 253.658 50.455C253.258 50.605 252.793 50.68 252.263 50.68H249.773ZM249.773 49.51H252.113C253.513 49.51 254.213 48.91 254.213 47.71V47.44C254.213 46.91 254.038 46.485 253.688 46.165C253.348 45.835 252.823 45.67 252.113 45.67H249.773V49.51Z" fill="black"/>
<path d="M264.298 55H263.038V51.49C263.038 51.23 262.978 51.03 262.858 50.89C262.738 50.75 262.528 50.68 262.228 50.68H258.958V55H257.698V44.5H261.448C261.988 44.5 262.458 44.58 262.858 44.74C263.258 44.89 263.588 45.095 263.848 45.355C264.118 45.615 264.318 45.92 264.448 46.27C264.588 46.61 264.658 46.97 264.658 47.35V47.8C264.658 48.19 264.548 48.58 264.328 48.97C264.118 49.36 263.788 49.66 263.338 49.87V50.05C263.638 50.1 263.873 50.22 264.043 50.41C264.213 50.6 264.298 50.87 264.298 51.22V55ZM258.958 49.51H261.298C262.008 49.51 262.533 49.36 262.873 49.06C263.223 48.75 263.398 48.3 263.398 47.71V47.44C263.398 46.91 263.223 46.485 262.873 46.165C262.533 45.835 262.008 45.67 261.298 45.67H258.958V49.51Z" fill="black"/>
<path d="M266.867 44.5H273.527V45.67H270.827V53.83H273.527V55H266.867V53.83H269.567V45.67H266.867V44.5Z" fill="black"/>
<path d="M275.947 44.5H282.967V46.39L276.667 53.65V53.83H283.147V55H275.587V53.11L281.887 45.85V45.67H275.947V44.5Z" fill="black"/>
<path d="M285.387 44.5H291.747V45.67H286.647V49.15H291.657V50.32H286.647V53.83H291.837V55H285.387V44.5Z" fill="black"/>
<path d="M296.701 54.16C296.701 53.87 296.801 53.625 297.001 53.425C297.211 53.215 297.461 53.11 297.751 53.11C298.041 53.11 298.286 53.215 298.486 53.425C298.696 53.625 298.801 53.87 298.801 54.16C298.801 54.45 298.696 54.7 298.486 54.91C298.286 55.11 298.041 55.21 297.751 55.21C297.461 55.21 297.211 55.11 297.001 54.91C296.801 54.7 296.701 54.45 296.701 54.16Z" fill="black"/>
</svg>
